{
	"asset":{
		"extensions":{
			"ASOBO_normal_map_convention":{
				"tangent_space_convention":"DirectX"
			}
		},
		"generator":"Khronos glTF Blender I/O v3.6.28 and Asobo Studio MSFS2024 Blender I/O v0.3.6 with Blender v3.6.14",
		"version":"2.0"
	},
	"extensionsUsed":[
		"ASOBO_normal_map_convention",
		"ASOBO_unique_id",
		"ASOBO_material_invisible",
		"ASOBO_material_shadow_options"
	],
	"scene":0,
	"scenes":[
		{
			"name":"Scene",
			"nodes":[
				0,
				1
			]
		}
	],
	"nodes":[
		{
			"extensions":{
				"ASOBO_unique_id":{
					"id":"SimCache.004"
				}
			},
			"mesh":0,
			"name":"SimCache.004",
			"rotation":[
				0,
				0.7071068286895752,
				0,
				0.7071068286895752
			],
			"scale":[
				1.5,
				1.5,
				1.5
			]
		},
		{
			"extensions":{
				"ASOBO_unique_id":{
					"id":"Bounds.004"
				}
			},
			"mesh":1,
			"name":"Bounds.004"
		}
	],
	"materials":[
		{
			"emissiveFactor":[
				0.532890441879367,
				0.4188519108490958,
				0
			],
			"extras":{},
			"name":"Material.006",
			"pbrMetallicRoughness":{
				"baseColorFactor":[
					1,
					0.7889822125434875,
					0,
					1
				],
				"metallicFactor":1,
				"roughnessFactor":1
			}
		},
		{
			"alphaMode":"BLEND",
			"emissiveFactor":[
				0,
				0,
				0
			],
			"extensions":{
				"ASOBO_material_invisible":{
					"enabled":true
				},
				"ASOBO_material_shadow_options":{
					"noCastShadow":true
				}
			},
			"extras":{},
			"name":"Material.005",
			"pbrMetallicRoughness":{
				"baseColorFactor":[
					1,
					1,
					1,
					1
				],
				"metallicFactor":1,
				"roughnessFactor":1
			}
		}
	],
	"meshes":[
		{
			"name":"Cube.029",
			"primitives":[
				{
					"attributes":{
						"COLOR_0":0,
						"POSITION":1,
						"NORMAL":2,
						"TEXCOORD_0":3
					},
					"indices":4,
					"material":0
				}
			]
		},
		{
			"name":"Cube.035",
			"primitives":[
				{
					"attributes":{
						"POSITION":5,
						"NORMAL":6,
						"TEXCOORD_0":7
					},
					"indices":8,
					"material":1
				}
			]
		}
	],
	"accessors":[
		{
			"bufferView":0,
			"componentType":5126,
			"count":194,
			"type":"VEC4"
		},
		{
			"bufferView":1,
			"componentType":5126,
			"count":194,
			"max":[
				0.05118171498179436,
				1.306562900543213,
				1.306562900543213
			],
			"min":[
				-0.0493566133081913,
				-1.306562900543213,
				-1.306562900543213
			],
			"type":"VEC3"
		},
		{
			"bufferView":2,
			"componentType":5126,
			"count":194,
			"type":"VEC3"
		},
		{
			"bufferView":3,
			"componentType":5126,
			"count":194,
			"type":"VEC2"
		},
		{
			"bufferView":4,
			"componentType":5123,
			"count":222,
			"type":"SCALAR"
		},
		{
			"bufferView":5,
			"componentType":5126,
			"count":24,
			"max":[
				10,
				10,
				10
			],
			"min":[
				-10,
				-10,
				-10
			],
			"type":"VEC3"
		},
		{
			"bufferView":6,
			"componentType":5126,
			"count":24,
			"type":"VEC3"
		},
		{
			"bufferView":7,
			"componentType":5126,
			"count":24,
			"type":"VEC2"
		},
		{
			"bufferView":8,
			"componentType":5123,
			"count":36,
			"type":"SCALAR"
		}
	],
	"bufferViews":[
		{
			"buffer":0,
			"byteLength":3104,
			"byteOffset":0,
			"target":34962
		},
		{
			"buffer":0,
			"byteLength":2328,
			"byteOffset":3104,
			"target":34962
		},
		{
			"buffer":0,
			"byteLength":2328,
			"byteOffset":5432,
			"target":34962
		},
		{
			"buffer":0,
			"byteLength":1552,
			"byteOffset":7760,
			"target":34962
		},
		{
			"buffer":0,
			"byteLength":444,
			"byteOffset":9312,
			"target":34963
		},
		{
			"buffer":0,
			"byteLength":288,
			"byteOffset":9756,
			"target":34962
		},
		{
			"buffer":0,
			"byteLength":288,
			"byteOffset":10044,
			"target":34962
		},
		{
			"buffer":0,
			"byteLength":192,
			"byteOffset":10332,
			"target":34962
		},
		{
			"buffer":0,
			"byteLength":72,
			"byteOffset":10524,
			"target":34963
		}
	],
	"buffers":[
		{
			"byteLength":10596,
			"uri":"SimCache_LOD4.bin"
		}
	]
}
