{"asset":{"version":"2.0","generator":"babylon.js glTF exporter for 3dsmax 2020 v1.0.8322.32912","extensions":{"ASOBO_normal_map_convention":{"tangent_space_convention":"DirectX"}}},"extensionsUsed":["ASOBO_normal_map_convention","ASOBO_unique_id","ASOBO_material_shadow_options","ASOBO_material_disable_motion_blur","ASOBO_animation_retargeting"],"scene":0,"scenes":[{"nodes":[0,1,2,3,4]}],"nodes":[{"mesh":0,"translation":[3.08314065E-06,3.5,4.662293E-07],"rotation":[0.693520069,-0.137949735,-0.1379497,0.6935198],"scale":[0.0659448057,0.06594482,0.06594478],"name":"halo2","extensions":{"ASOBO_unique_id":{"id":"halo2"}}},{"mesh":1,"translation":[3.05868639E-06,3.5,0.0],"rotation":[1.0306492E-07,-0.7071068,0.7071067,1.00283039E-07],"scale":[0.05546958,0.06594476,0.05546954],"name":"star","extensions":{"ASOBO_unique_id":{"id":"star"}}},{"mesh":2,"translation":[0.0,3.50541973,0.0],"rotation":[1.49011736E-08,-0.7071068,0.7071067,-5.960465E-08],"scale":[0.9999999,0.99999994,0.99999994],"name":"ring1","extensions":{"ASOBO_unique_id":{"id":"ring1"}}},{"mesh":3,"translation":[0.0,3.50541973,0.0],"rotation":[0.5000001,-0.499999881,0.50000006,-0.5],"name":"ring2","extensions":{"ASOBO_unique_id":{"id":"ring2"}}},{"mesh":4,"translation":[3.08314065E-06,3.5,4.662293E-07],"rotation":[8.067544E-08,-0.7071067,0.7071068,1.33751925E-08],"scale":[0.0659448057,0.06594482,0.06594479],"name":"halo1","extensions":{"ASOBO_unique_id":{"id":"halo1"}}}],"meshes":[{"primitives":[{"attributes":{"POSITION":1,"NORMAL":2,"TEXCOORD_0":3},"indices":0,"mode":4,"material":0}],"name":"halo2"},{"primitives":[{"attributes":{"POSITION":5,"NORMAL":6,"TEXCOORD_0":7},"indices":4,"mode":4,"material":0}],"name":"star"},{"primitives":[{"attributes":{"POSITION":9,"NORMAL":10,"TEXCOORD_0":11},"indices":8,"mode":4,"material":0}],"name":"ring1"},{"primitives":[{"attributes":{"POSITION":13,"NORMAL":14,"TEXCOORD_0":15},"indices":12,"mode":4,"material":0}],"name":"ring2"},{"primitives":[{"attributes":{"POSITION":17,"NORMAL":18,"TEXCOORD_0":19},"indices":16,"mode":4,"material":0}],"name":"halo1"}],"accessors":[{"bufferView":0,"componentType":5123,"count":960,"type":"SCALAR","name":"accessorIndices"},{"bufferView":1,"componentType":5126,"count":354,"max":[38.131588,6.500001,38.13159],"min":[-38.131588,3.49999785,-38.131588],"type":"VEC3","name":"accessorPositions"},{"bufferView":1,"byteOffset":4248,"componentType":5126,"count":354,"type":"VEC3","name":"accessorNormals"},{"bufferView":2,"componentType":5126,"count":354,"type":"VEC2","name":"accessorUVs"},{"bufferView":0,"byteOffset":1920,"componentType":5123,"count":48,"type":"SCALAR","name":"accessorIndices"},{"bufferView":1,"byteOffset":8496,"componentType":5126,"count":48,"max":[19.5321045,1.9113462,19.5321083],"min":[-19.5321045,-1.911346,-19.5321045],"type":"VEC3","name":"accessorPositions"},{"bufferView":1,"byteOffset":9072,"componentType":5126,"count":48,"type":"VEC3","name":"accessorNormals"},{"bufferView":2,"byteOffset":2832,"componentType":5126,"count":48,"type":"VEC2","name":"accessorUVs"},{"bufferView":0,"byteOffset":2016,"componentType":5123,"count":1536,"type":"SCALAR","name":"accessorIndices"},{"bufferView":1,"byteOffset":9648,"componentType":5126,"count":520,"max":[1.465913,0.1,1.465913],"min":[-1.465913,-0.1,-1.465913],"type":"VEC3","name":"accessorPositions"},{"bufferView":1,"byteOffset":15888,"componentType":5126,"count":520,"type":"VEC3","name":"accessorNormals"},{"bufferView":2,"byteOffset":3216,"componentType":5126,"count":520,"type":"VEC2","name":"accessorUVs"},{"bufferView":0,"byteOffset":5088,"componentType":5123,"count":1536,"type":"SCALAR","name":"accessorIndices"},{"bufferView":1,"byteOffset":22128,"componentType":5126,"count":520,"max":[1.465913,0.1,1.465913],"min":[-1.465913,-0.1,-1.465913],"type":"VEC3","name":"accessorPositions"},{"bufferView":1,"byteOffset":28368,"componentType":5126,"count":520,"type":"VEC3","name":"accessorNormals"},{"bufferView":2,"byteOffset":7376,"componentType":5126,"count":520,"type":"VEC2","name":"accessorUVs"},{"bufferView":0,"byteOffset":8160,"componentType":5123,"count":960,"type":"SCALAR","name":"accessorIndices"},{"bufferView":1,"byteOffset":34608,"componentType":5126,"count":354,"max":[38.131588,6.500001,38.13159],"min":[-38.131588,3.49999785,-38.131588],"type":"VEC3","name":"accessorPositions"},{"bufferView":1,"byteOffset":38856,"componentType":5126,"count":354,"type":"VEC3","name":"accessorNormals"},{"bufferView":2,"byteOffset":11536,"componentType":5126,"count":354,"type":"VEC2","name":"accessorUVs"},{"bufferView":3,"componentType":5126,"count":101,"max":[3.33333325],"min":[0.0],"type":"SCALAR","name":"accessorAnimationInput"},{"bufferView":4,"componentType":5126,"count":101,"type":"VEC3","name":"accessorAnimationPositions"},{"bufferView":3,"byteOffset":404,"componentType":5126,"count":101,"max":[3.33333325],"min":[0.0],"type":"SCALAR","name":"accessorAnimationInput"},{"bufferView":5,"componentType":5126,"count":101,"type":"VEC4","name":"accessorAnimationRotations"},{"bufferView":3,"byteOffset":808,"componentType":5126,"count":101,"max":[3.33333325],"min":[0.0],"type":"SCALAR","name":"accessorAnimationInput"},{"bufferView":4,"byteOffset":1212,"componentType":5126,"count":101,"type":"VEC3","name":"accessorAnimationScales"},{"bufferView":3,"byteOffset":1212,"componentType":5126,"count":101,"max":[3.33333325],"min":[0.0],"type":"SCALAR","name":"accessorAnimationInput"},{"bufferView":4,"byteOffset":2424,"componentType":5126,"count":101,"type":"VEC3","name":"accessorAnimationPositions"},{"bufferView":3,"byteOffset":1616,"componentType":5126,"count":101,"max":[3.33333325],"min":[0.0],"type":"SCALAR","name":"accessorAnimationInput"},{"bufferView":5,"byteOffset":1616,"componentType":5126,"count":101,"type":"VEC4","name":"accessorAnimationRotations"},{"bufferView":3,"byteOffset":2020,"componentType":5126,"count":101,"max":[3.33333325],"min":[0.0],"type":"SCALAR","name":"accessorAnimationInput"},{"bufferView":4,"byteOffset":3636,"componentType":5126,"count":101,"type":"VEC3","name":"accessorAnimationScales"},{"bufferView":3,"byteOffset":2424,"componentType":5126,"count":101,"max":[3.33333325],"min":[0.0],"type":"SCALAR","name":"accessorAnimationInput"},{"bufferView":5,"byteOffset":3232,"componentType":5126,"count":101,"type":"VEC4","name":"accessorAnimationRotations"},{"bufferView":3,"byteOffset":2828,"componentType":5126,"count":101,"max":[3.33333325],"min":[0.0],"type":"SCALAR","name":"accessorAnimationInput"},{"bufferView":5,"byteOffset":4848,"componentType":5126,"count":101,"type":"VEC4","name":"accessorAnimationRotations"},{"bufferView":3,"byteOffset":3232,"componentType":5126,"count":101,"max":[3.33333325],"min":[0.0],"type":"SCALAR","name":"accessorAnimationInput"},{"bufferView":4,"byteOffset":4848,"componentType":5126,"count":101,"type":"VEC3","name":"accessorAnimationPositions"},{"bufferView":3,"byteOffset":3636,"componentType":5126,"count":101,"max":[3.33333325],"min":[0.0],"type":"SCALAR","name":"accessorAnimationInput"},{"bufferView":5,"byteOffset":6464,"componentType":5126,"count":101,"type":"VEC4","name":"accessorAnimationRotations"},{"bufferView":3,"byteOffset":4040,"componentType":5126,"count":101,"max":[3.33333325],"min":[0.0],"type":"SCALAR","name":"accessorAnimationInput"},{"bufferView":4,"byteOffset":6060,"componentType":5126,"count":101,"type":"VEC3","name":"accessorAnimationScales"}],"bufferViews":[{"buffer":0,"byteLength":10080,"name":"bufferViewScalar"},{"buffer":0,"byteOffset":10080,"byteLength":43104,"byteStride":12,"name":"bufferViewFloatVec3"},{"buffer":0,"byteOffset":53184,"byteLength":14368,"byteStride":8,"name":"bufferViewFloatVec2"},{"buffer":0,"byteOffset":67552,"byteLength":4444,"name":"bufferViewAnimationFloatScalar"},{"buffer":0,"byteOffset":71996,"byteLength":7272,"name":"bufferViewAnimationFloatVec3"},{"buffer":0,"byteOffset":79268,"byteLength":8080,"name":"bufferViewAnimationFloatVec4"}],"buffers":[{"uri":"SimCache.bin","byteLength":87348}],"materials":[{"pbrMetallicRoughness":{"baseColorFactor":[0.9052133,0.583455,0.0,0.5]},"emissiveFactor":[5.0,2.74881554,0.0],"alphaMode":"BLEND","name":"01 - Default","extensions":{"ASOBO_material_shadow_options":{"noCastShadow":true},"ASOBO_material_disable_motion_blur":{"enabled":true}}}],"animations":[{"channels":[{"sampler":0,"target":{"node":0,"path":"translation","extensions":{"ASOBO_animation_retargeting":{"id":"halo2"}}}},{"sampler":1,"target":{"node":0,"path":"rotation","extensions":{"ASOBO_animation_retargeting":{"id":"halo2"}}}},{"sampler":2,"target":{"node":0,"path":"scale","extensions":{"ASOBO_animation_retargeting":{"id":"halo2"}}}},{"sampler":3,"target":{"node":1,"path":"translation","extensions":{"ASOBO_animation_retargeting":{"id":"star"}}}},{"sampler":4,"target":{"node":1,"path":"rotation","extensions":{"ASOBO_animation_retargeting":{"id":"star"}}}},{"sampler":5,"target":{"node":1,"path":"scale","extensions":{"ASOBO_animation_retargeting":{"id":"star"}}}},{"sampler":6,"target":{"node":2,"path":"rotation","extensions":{"ASOBO_animation_retargeting":{"id":"ring1"}}}},{"sampler":7,"target":{"node":3,"path":"rotation","extensions":{"ASOBO_animation_retargeting":{"id":"ring2"}}}},{"sampler":8,"target":{"node":4,"path":"translation","extensions":{"ASOBO_animation_retargeting":{"id":"halo1"}}}},{"sampler":9,"target":{"node":4,"path":"rotation","extensions":{"ASOBO_animation_retargeting":{"id":"halo1"}}}},{"sampler":10,"target":{"node":4,"path":"scale","extensions":{"ASOBO_animation_retargeting":{"id":"halo1"}}}}],"samplers":[{"input":20,"interpolation":"LINEAR","output":21},{"input":22,"interpolation":"LINEAR","output":23},{"input":24,"interpolation":"LINEAR","output":25},{"input":26,"interpolation":"LINEAR","output":27},{"input":28,"interpolation":"LINEAR","output":29},{"input":30,"interpolation":"LINEAR","output":31},{"input":32,"interpolation":"LINEAR","output":33},{"input":34,"interpolation":"LINEAR","output":35},{"input":36,"interpolation":"LINEAR","output":37},{"input":38,"interpolation":"LINEAR","output":39},{"input":40,"interpolation":"LINEAR","output":41}],"name":"All Animations"}]}