{
	"asset":{
		"extensions":{
			"ASOBO_normal_map_convention":{
				"tangent_space_convention":"DirectX"
			}
		},
		"generator":"Khronos glTF Blender I/O v3.6.28 and Asobo Studio MSFS2024 Blender I/O v0.3.6 with Blender v3.6.14",
		"version":"2.0"
	},
	"extensionsUsed":[
		"ASOBO_normal_map_convention",
		"ASOBO_unique_id",
		"ASOBO_material_invisible",
		"ASOBO_material_shadow_options"
	],
	"scene":0,
	"scenes":[
		{
			"name":"Scene",
			"nodes":[
				0,
				1
			]
		}
	],
	"nodes":[
		{
			"extensions":{
				"ASOBO_unique_id":{
					"id":"SimCache.001"
				}
			},
			"mesh":0,
			"name":"SimCache.001",
			"rotation":[
				0,
				0.7071068286895752,
				0,
				0.7071068286895752
			],
			"scale":[
				1.5,
				1.5,
				1.5
			]
		},
		{
			"extensions":{
				"ASOBO_unique_id":{
					"id":"Bounds.001"
				}
			},
			"mesh":1,
			"name":"Bounds.001"
		}
	],
	"materials":[
		{
			"alphaMode":"BLEND",
			"emissiveFactor":[
				0,
				0,
				0
			],
			"extensions":{
				"ASOBO_material_invisible":{
					"enabled":true
				},
				"ASOBO_material_shadow_options":{
					"noCastShadow":true
				}
			},
			"extras":{},
			"name":"Material.002",
			"pbrMetallicRoughness":{
				"baseColorFactor":[
					1,
					1,
					1,
					1
				],
				"metallicFactor":1,
				"roughnessFactor":1
			}
		}
	],
	"meshes":[
		{
			"name":"Cube.011",
			"primitives":[
				{
					"attributes":{
						"COLOR_0":0,
						"POSITION":1,
						"NORMAL":2,
						"TEXCOORD_0":3
					},
					"indices":4
				}
			]
		},
		{
			"name":"Cube.032",
			"primitives":[
				{
					"attributes":{
						"POSITION":5,
						"NORMAL":6,
						"TEXCOORD_0":7
					},
					"indices":8,
					"material":0
				}
			]
		}
	],
	"accessors":[
		{
			"bufferView":0,
			"componentType":5126,
			"count":1064,
			"type":"VEC4"
		},
		{
			"bufferView":1,
			"componentType":5126,
			"count":1064,
			"max":[
				0.15000000596046448,
				1.409999966621399,
				1.409999966621399
			],
			"min":[
				-0.15000000596046448,
				-1.409999966621399,
				-1.409999966621399
			],
			"type":"VEC3"
		},
		{
			"bufferView":2,
			"componentType":5126,
			"count":1064,
			"type":"VEC3"
		},
		{
			"bufferView":3,
			"componentType":5126,
			"count":1064,
			"type":"VEC2"
		},
		{
			"bufferView":4,
			"componentType":5123,
			"count":1872,
			"type":"SCALAR"
		},
		{
			"bufferView":5,
			"componentType":5126,
			"count":24,
			"max":[
				10,
				10,
				10
			],
			"min":[
				-10,
				-10,
				-10
			],
			"type":"VEC3"
		},
		{
			"bufferView":6,
			"componentType":5126,
			"count":24,
			"type":"VEC3"
		},
		{
			"bufferView":7,
			"componentType":5126,
			"count":24,
			"type":"VEC2"
		},
		{
			"bufferView":8,
			"componentType":5123,
			"count":36,
			"type":"SCALAR"
		}
	],
	"bufferViews":[
		{
			"buffer":0,
			"byteLength":17024,
			"byteOffset":0,
			"target":34962
		},
		{
			"buffer":0,
			"byteLength":12768,
			"byteOffset":17024,
			"target":34962
		},
		{
			"buffer":0,
			"byteLength":12768,
			"byteOffset":29792,
			"target":34962
		},
		{
			"buffer":0,
			"byteLength":8512,
			"byteOffset":42560,
			"target":34962
		},
		{
			"buffer":0,
			"byteLength":3744,
			"byteOffset":51072,
			"target":34963
		},
		{
			"buffer":0,
			"byteLength":288,
			"byteOffset":54816,
			"target":34962
		},
		{
			"buffer":0,
			"byteLength":288,
			"byteOffset":55104,
			"target":34962
		},
		{
			"buffer":0,
			"byteLength":192,
			"byteOffset":55392,
			"target":34962
		},
		{
			"buffer":0,
			"byteLength":72,
			"byteOffset":55584,
			"target":34963
		}
	],
	"buffers":[
		{
			"byteLength":55656,
			"uri":"SimCache_LOD1.bin"
		}
	]
}
