<?xml version="1.0" encoding="UTF-8"?>
<svg width="512" height="512" version="1.1" viewBox="0 0 512 512" xml:space="preserve" xmlns="http://www.w3.org/2000/svg"><style>.base-style { fill:#ffffff;    fill-rule:evenodd; }
</style><g transform="rotate(45,255,255)"><path id="outer-west" class="base-style" d="m255.16 379.84a125 125 45 0 1-125-125v125z" style="stroke-width:1.5296"/><path id="outer-south" class="base-style" d="m379.77 254.77a125 125 0 0 1-125 125h125z" style="stroke-width:1.5296"/><path id="outer-east" class="base-style" d="m254.87 130.13a125 125 0 0 1 125 125v-125z" style="stroke-width:1.5296"/><path id="outer-north" class="base-style" d="m130.16 130.16v125a125 125 66.821 0 1 125-125z" style="stroke-width:1.5296"/><path id="outer-northwest" class="base-style" transform="rotate(-45,255,255)" d="m140 206.55a125 125 0 0 1 66.549-66.549h-66.549z" style="stroke-width:1.0673"/><path id="outer-southwest" class="base-style" transform="rotate(-45,255,255)" d="m206.55 370a125 125 0 0 1-66.549-66.549v66.549z" style="stroke-width:1.0673"/><path id="outer-southeast" class="base-style" transform="rotate(-45,255,255)" d="m370 303.45a125 125 0 0 1-66.549 66.549h66.549z" style="stroke-width:1.0673"/><path id="outer-northeast" class="base-style" transform="rotate(-45,255,255)" d="m303.93 140a125 125 0 0 1 66.07 66.07v-66.07z" style="stroke-width:1.0673"/></g><path id="inner-north" class="base-style" d="m255 159.8-15 85.197h30z" style=""/><path id="inner-east" class="base-style" d="m350.2 255-85.197-15v30z" style=""/><path id="inner-south" class="base-style" d="m255.01 350.2 15-85.197h-30z" style=""/><path id="inner-west" class="base-style" d="m159.8 255.01 85.197 15v-30z" style=""/><path id="inner-ring" class="base-style" d="m255 140.33a115.74 114.67 0 0 0-115.74 114.67 115.74 114.67 0 0 0 115.74 114.67 115.74 114.67 0 0 0 115.74-114.67 115.74 114.67 0 0 0-115.74-114.67zm0 9.8809a105.76 104.79 0 0 1 105.76 104.79 105.76 104.79 0 0 1-105.76 104.79 105.76 104.79 0 0 1-105.76-104.79 105.76 104.79 0 0 1 105.76-104.79z" style="stroke-width:1.4244"/><rect id="middle-fill" class="base-style" x="242.5" y="242.5" width="25" height="25" style="stroke-width:1.0111"/></svg>
